<svg xmlns="http://www.w3.org/2000/svg" width="46.605" height="39.524" viewBox="0 0 46.605 39.524">
  <g id="logo_01" transform="translate(0 0.001)">
    <g id="Layer_1" data-name="Layer 1" transform="translate(0 -0.001)">
      <path id="Path_1" data-name="Path 1" d="M46.6,18.535v-.027a25.635,25.635,0,0,0-.85-6.567c-.1-.38-.211-.764-.328-1.161-.03-.1-.061-.2-.091-.3a15.124,15.124,0,0,0-5.475-8.131q-.352-.255-.724-.478L39.1,1.854A13.564,13.564,0,0,0,31.961,0h-.178a18.892,18.892,0,0,0-2.517.211l-.044.007c-8.637,1.286-18.484,8.095-23,11.442C1.226,15.366,0,16.348,0,17.471a2.361,2.361,0,0,0,2.269,2.4c.943,0,2.772-.061,2.772,1.9a3.636,3.636,0,0,1-.5,1.95c0,.223.141.3.4.3a2.546,2.546,0,0,0,2.347-2.445c.021-1.233-.722-.916-.722-2.378,0-1.119,1.36-1.723,2.018-1.723,1,0,2.684.023,2.684,3.966,0,.193,0,.387.009.581,0,.123.007.249.011.371s.012.249.019.374c.02.332.049.662.086.991q.111,1.035.318,2.043a22.048,22.048,0,0,0,.609,2.35c.032.1.063.2.1.29.039.118.081.237.123.352.016.049.032.1.051.144a19.766,19.766,0,0,0,3.639,6.3c.239.272.483.534.736.785.021.021.044.042.063.063a13.765,13.765,0,0,0,2.039,1.66c.061.039.12.08.179.114a11,11,0,0,0,1.734.91l.027.011a9.605,9.605,0,0,0,3.675.741h.159a.028.028,0,0,0,.018,0,22.623,22.623,0,0,0,10.3-2.438l.023-.011a19.948,19.948,0,0,0,7.448-6.462l.007-.012,0-.007L42.6,30.6c-12.94,2.16-23.7-1.734-23.217-12.577,0-.8-.752-1.317-.752-1.409s.035-.141.27-.423a15.938,15.938,0,0,0,2.54-4.105.231.231,0,0,0-.269-.311,5.522,5.522,0,0,1-1.238.179,1.107,1.107,0,0,1-1.179-1.041c0-2.154,8.918-5.955,14.5-5.972,11.474-.035,12.916,10.182,13.315,15.046v-.054A12.134,12.134,0,0,0,46.6,18.535ZM13.042,12.472a1.775,1.775,0,0,1-.311.282,1.644,1.644,0,0,1-1.955-.051.676.676,0,0,1-.232-.3,1.234,1.234,0,0,1-.065-.775,1.671,1.671,0,0,1,1.98-1.31,1.239,1.239,0,0,1,.955.764A1.584,1.584,0,0,1,13.042,12.472Z" transform="translate(0 0.001)" fill="#ee4137"/>
    </g>
  </g>
</svg>
